<svg width="20" height="21" viewBox="0 0 20 21" fill="none" xmlns="http://www.w3.org/2000/svg">
<path d="M1.66675 3.47298C1.66675 3.00627 1.66675 2.77292 1.75758 2.59466C1.83747 2.43785 1.96495 2.31037 2.12176 2.23048C2.30002 2.13965 2.53337 2.13965 3.00008 2.13965H7.00008C7.46679 2.13965 7.70015 2.13965 7.87841 2.23048C8.03521 2.31037 8.16269 2.43785 8.24259 2.59466C8.33341 2.77292 8.33341 3.00627 8.33341 3.47298V7.47298C8.33341 7.93969 8.33341 8.17305 8.24259 8.35131C8.16269 8.50811 8.03521 8.63559 7.87841 8.71549C7.70015 8.80631 7.46679 8.80631 7.00008 8.80631H3.00008C2.53337 8.80631 2.30002 8.80631 2.12176 8.71549C1.96495 8.63559 1.83747 8.50811 1.75758 8.35131C1.66675 8.17305 1.66675 7.93969 1.66675 7.47298V3.47298Z" stroke="white" stroke-width="1.5"/>
<path d="M1.66675 13.473C1.66675 13.0063 1.66675 12.7729 1.75758 12.5947C1.83747 12.4379 1.96495 12.3104 2.12176 12.2305C2.30002 12.1396 2.53337 12.1396 3.00008 12.1396H7.00008C7.46679 12.1396 7.70015 12.1396 7.87841 12.2305C8.03521 12.3104 8.16269 12.4379 8.24259 12.5947C8.33341 12.7729 8.33341 13.0063 8.33341 13.473V17.473C8.33341 17.9397 8.33341 18.173 8.24259 18.3513C8.16269 18.5081 8.03521 18.6356 7.87841 18.7155C7.70015 18.8063 7.46679 18.8063 7.00008 18.8063H3.00008C2.53337 18.8063 2.30002 18.8063 2.12176 18.7155C1.96495 18.6356 1.83747 18.5081 1.75758 18.3513C1.66675 18.173 1.66675 17.9397 1.66675 17.473V13.473Z" stroke="white" stroke-width="1.5"/>
<path d="M11.6667 3.47298C11.6667 3.00627 11.6667 2.77292 11.7576 2.59466C11.8375 2.43785 11.965 2.31037 12.1218 2.23048C12.3 2.13965 12.5334 2.13965 13.0001 2.13965H17.0001C17.4668 2.13965 17.7001 2.13965 17.8784 2.23048C18.0352 2.31037 18.1627 2.43785 18.2426 2.59466C18.3334 2.77292 18.3334 3.00627 18.3334 3.47298V7.47298C18.3334 7.93969 18.3334 8.17305 18.2426 8.35131C18.1627 8.50811 18.0352 8.63559 17.8784 8.71549C17.7001 8.80631 17.4668 8.80631 17.0001 8.80631H13.0001C12.5334 8.80631 12.3 8.80631 12.1218 8.71549C11.965 8.63559 11.8375 8.50811 11.7576 8.35131C11.6667 8.17305 11.6667 7.93969 11.6667 7.47298V3.47298Z" stroke="white" stroke-width="1.5"/>
<path d="M11.6667 13.473C11.6667 13.0063 11.6667 12.7729 11.7576 12.5947C11.8375 12.4379 11.965 12.3104 12.1218 12.2305C12.3 12.1396 12.5334 12.1396 13.0001 12.1396H17.0001C17.4668 12.1396 17.7001 12.1396 17.8784 12.2305C18.0352 12.3104 18.1627 12.4379 18.2426 12.5947C18.3334 12.7729 18.3334 13.0063 18.3334 13.473V17.473C18.3334 17.9397 18.3334 18.173 18.2426 18.3513C18.1627 18.5081 18.0352 18.6356 17.8784 18.7155C17.7001 18.8063 17.4668 18.8063 17.0001 18.8063H13.0001C12.5334 18.8063 12.3 18.8063 12.1218 18.7155C11.965 18.6356 11.8375 18.5081 11.7576 18.3513C11.6667 18.173 11.6667 17.9397 11.6667 17.473V13.473Z" stroke="white" stroke-width="1.5"/>
</svg>
