<svg width="23" height="22" viewBox="0 0 23 22" fill="none" xmlns="http://www.w3.org/2000/svg">
<path fill-rule="evenodd" clip-rule="evenodd" d="M22.6879 11.1411C22.6879 5.27067 17.7414 0.510742 11.6408 0.510742C5.54028 0.510742 0.59375 5.27067 0.59375 11.1411C0.59375 16.4468 4.63284 20.8446 9.91474 21.6428V14.2149H7.10907V11.1411H9.91474V8.79909C9.91474 6.13533 11.5644 4.66275 14.0875 4.66275C15.2962 4.66275 16.5607 4.87061 16.5607 4.87061V7.48691H15.167C13.7955 7.48691 13.3665 8.30601 13.3665 9.1479V11.1411H16.4301L15.9408 14.2149H13.367V21.6438C18.6488 20.846 22.6879 16.4482 22.6879 11.1411V11.1411Z" fill="white"/>
</svg>
