<svg width="23" height="22" viewBox="0 0 23 22" fill="none" xmlns="http://www.w3.org/2000/svg">
<path d="M16.1499 2.21883C17.3696 2.22234 18.5384 2.69015 19.4009 3.52011C20.2634 4.35007 20.7495 5.47473 20.7532 6.64846V15.5068C20.7495 16.6805 20.2634 17.8052 19.4009 18.6351C18.5384 19.4651 17.3696 19.9329 16.1499 19.9364H6.9443C5.72456 19.9329 4.55581 19.4651 3.69331 18.6351C2.83082 17.8052 2.34466 16.6805 2.34102 15.5068V6.64846C2.34466 5.47473 2.83082 4.35007 3.69331 3.52011C4.55581 2.69015 5.72456 2.22234 6.9443 2.21883H16.1499V2.21883ZM16.1499 0.447266H6.9443C3.39986 0.447266 0.5 3.23773 0.5 6.64846V15.5068C0.5 18.9175 3.39986 21.708 6.9443 21.708H16.1499C19.6943 21.708 22.5942 18.9175 22.5942 15.5068V6.64846C22.5942 3.23773 19.6943 0.447266 16.1499 0.447266V0.447266Z" fill="white"/>
<path d="M17.5307 6.6488C17.2575 6.6488 16.9906 6.57087 16.7635 6.42486C16.5364 6.27885 16.3594 6.07132 16.2549 5.82851C16.1504 5.58571 16.123 5.31853 16.1763 5.06077C16.2296 4.80301 16.3611 4.56624 16.5542 4.38041C16.7473 4.19457 16.9934 4.06802 17.2613 4.01674C17.5291 3.96547 17.8068 3.99179 18.0591 4.09236C18.3114 4.19293 18.5271 4.36325 18.6788 4.58177C18.8306 4.80029 18.9115 5.05719 18.9115 5.32C18.9119 5.49461 18.8765 5.66757 18.8072 5.82896C18.738 5.99034 18.6363 6.13698 18.508 6.26044C18.3797 6.3839 18.2273 6.48177 18.0596 6.54841C17.8919 6.61506 17.7121 6.64917 17.5307 6.6488V6.6488ZM11.547 7.53434C12.2753 7.53434 12.9873 7.74217 13.5929 8.13155C14.1985 8.52093 14.6705 9.07436 14.9492 9.72187C15.2279 10.3694 15.3008 11.0819 15.1588 11.7693C15.0167 12.4567 14.6659 13.0881 14.1509 13.5837C13.6359 14.0792 12.9798 14.4167 12.2654 14.5535C11.5511 14.6902 10.8106 14.62 10.1377 14.3518C9.46485 14.0836 8.88972 13.6294 8.48508 13.0467C8.08043 12.4639 7.86446 11.7788 7.86446 11.0779C7.8655 10.1384 8.25382 9.23769 8.9442 8.57335C9.63458 7.90901 10.5706 7.53535 11.547 7.53434V7.53434ZM11.547 5.76278C10.4545 5.76278 9.38661 6.07451 8.47827 6.65854C7.56993 7.24258 6.86196 8.0727 6.44389 9.04392C6.02583 10.0151 5.91645 11.0838 6.12957 12.1149C6.3427 13.1459 6.86877 14.093 7.64125 14.8363C8.41373 15.5797 9.39793 16.0859 10.4694 16.291C11.5409 16.4961 12.6515 16.3908 13.6608 15.9885C14.6701 15.5862 15.5327 14.905 16.1396 14.0309C16.7466 13.1568 17.0705 12.1292 17.0705 11.0779C17.0705 9.66828 16.4886 8.31634 15.4527 7.31956C14.4169 6.32277 13.0119 5.76278 11.547 5.76278V5.76278Z" fill="white"/>
</svg>
