<svg width="20" height="21" viewBox="0 0 20 21" fill="none" xmlns="http://www.w3.org/2000/svg">
<path d="M7.5 7.13998V11.3066M12.5 9.63998V13.8066M3.86682 16.8342L6.43303 14.6957C7.0511 14.1806 7.9489 14.1806 8.56697 14.6957L11.433 17.0841C12.0511 17.5991 12.9489 17.5991 13.567 17.0841L16.9003 14.3063C17.2803 13.9896 17.5 13.5206 17.5 13.0259V4.75243C17.5 4.0459 16.676 3.65993 16.1332 4.11225L13.567 6.25075C12.9489 6.76581 12.0511 6.76581 11.433 6.25075L8.56697 3.86237C7.9489 3.34731 7.0511 3.34731 6.43303 3.86237L3.09969 6.64015C2.7197 6.95681 2.5 7.42589 2.5 7.92052V16.194C2.5 16.9006 3.32405 17.2865 3.86682 16.8342Z" stroke="#171E1D" stroke-width="1.5" stroke-linecap="round"/>
</svg>
