<svg width="15" height="15" viewBox="0 0 15 15" fill="none" xmlns="http://www.w3.org/2000/svg">
<path d="M6.54894 1.45684C6.8483 0.535524 8.1517 0.535525 8.45106 1.45684L9.52063 4.74863C9.6545 5.16066 10.0385 5.43962 10.4717 5.43962H13.9329C14.9016 5.43962 15.3044 6.67923 14.5207 7.24863L11.7205 9.28307C11.37 9.53772 11.2234 9.98909 11.3572 10.4011L12.4268 13.6929C12.7261 14.6142 11.6717 15.3803 10.888 14.8109L8.08779 12.7765C7.7373 12.5219 7.2627 12.5219 6.91221 12.7765L4.11204 14.8109C3.32833 15.3803 2.27385 14.6142 2.5732 13.6929L3.64277 10.4011C3.77665 9.98909 3.62999 9.53772 3.2795 9.28307L0.479333 7.24863C-0.304381 6.67923 0.0983948 5.43962 1.06712 5.43962H4.52832C4.96154 5.43962 5.3455 5.16065 5.47937 4.74863L6.54894 1.45684Z" fill="#FFA722"/>
</svg>
