<svg width="25" height="20" viewBox="0 0 25 20" fill="none" xmlns="http://www.w3.org/2000/svg">
<path d="M24.3598 2.85758C23.4719 3.24314 22.5323 3.49716 21.5709 3.6116C22.5813 3.0204 23.3411 2.08117 23.7079 0.970074C22.7526 1.52824 21.7093 1.91987 20.6226 2.1282C20.165 1.64895 19.6146 1.26769 19.0049 1.0076C18.3953 0.747509 17.7391 0.614018 17.0762 0.615243C14.3923 0.615243 12.2204 2.75409 12.2204 5.39068C12.2185 5.75742 12.2605 6.12307 12.3456 6.47982C10.4211 6.38966 8.53662 5.89907 6.81271 5.03943C5.0888 4.17978 3.56344 2.97002 2.33421 1.48754C1.90296 2.21401 1.6749 3.0429 1.67385 3.88758C1.67385 5.54346 2.53838 7.00714 3.84381 7.86465C3.07038 7.8463 2.3128 7.64174 1.63538 7.26833V7.32747C1.63538 9.64373 3.31217 11.5707 5.53145 12.0093C5.11412 12.1204 4.68407 12.1768 4.25216 12.1768C3.94569 12.1774 3.63992 12.1477 3.3393 12.0881C3.95626 13.9855 5.7519 15.3654 7.87896 15.4048C6.15057 16.7359 4.02856 17.4553 1.84646 17.45C1.45913 17.4494 1.07216 17.4264 0.6875 17.381C2.90736 18.7975 5.48778 19.5468 8.1216 19.5396C17.0658 19.5396 21.9522 12.2606 21.9522 5.94757C21.9522 5.74059 21.9467 5.5336 21.9369 5.33154C22.8853 4.65739 23.7058 3.81962 24.3598 2.85758V2.85758Z" fill="white"/>
</svg>
